<svg version="1.1" xmlns="http://www.w3.org/2000/svg" xmlns:xlink="http://www.w3.org/1999/xlink" enable-background="new 0 0 1000 1000" xml:space="preserve" style="" viewBox="10 9.43 980.03 979.98"><rect id="backgroundrect" width="100%" height="100%" x="0" y="0" fill="none" stroke="none"/>
<metadata> Svg Vector Icons : http://www.onlinewebfonts.com/icon </metadata>

<g class="currentLayer" style=""><title>Layer 1</title><g id="svg_1" class="" opacity="1" fill="#dadada" fill-opacity="1"><path d="M980.2,979.6444444179535 c-13.1,13 -34.2,13 -47.3,0 L767.5,814.3444444179535 c-13,-13.1 -13,-34.2 0,-47.2 c13,-13 34.2,-13 47.3,0 L980.2,932.4444444179535 C993.3,945.4444444179535 993.3,966.5444444179535 980.2,979.6444444179535 zM433.7,581.0444444179535 h-10.7 c-14,0 -25.3,-11.3 -25.3,-25.3 V279.6444444179535 c0,-14 11.3,-25.3 25.3,-25.3 h10.7 c14,0 25.3,11.3 25.3,25.3 v276.1 C459,569.7444444179534 447.7,581.0444444179535 433.7,581.0444444179535 zM556.3,458.4444444179535 H300.5 c-14,0 -25.3,-11.3 -25.3,-25.3 v-10.7 c0,-14 11.3,-25.3 25.3,-25.3 h255.7 c14,0 25.3,11.3 25.3,25.3 v10.7 C581.5,447.1444444179535 570.2,458.4444444179535 556.3,458.4444444179535 zM428.4,50.144444417953494 c-208.7,0 -378,169.2 -378,377.9 c0,208.7 169.3,377.9 378,377.9 c208.7,0 377.9,-169.2 377.9,-377.9 C806.3,219.3444444179535 637.1,50.144444417953494 428.4,50.144444417953494 zM427.8,843.9444444179535 C197.1,843.9444444179535 10,657.1444444179535 10,426.7444444179535 C10,196.2444444179535 197.1,9.444444417953491 427.8,9.444444417953491 c230.7,0 417.7,186.8 417.7,417.2 C845.5,657.1444444179535 658.5,843.9444444179535 427.8,843.9444444179535 z" id="svg_2" opacity="1" fill="#dadada" fill-opacity="1"/></g></g></svg>